<?xml version="1.0" standalone="no"?>
<!DOCTYPE svg PUBLIC "-//W3C//DTD SVG 20010904//EN"
 "http://www.w3.org/TR/2001/REC-SVG-20010904/DTD/svg10.dtd">
<svg version="1.0" xmlns="http://www.w3.org/2000/svg"
 width="2000.000000pt" height="2000.000000pt" viewBox="0 0 2000.000000 2000.000000"
 preserveAspectRatio="xMidYMid meet">

<g transform="translate(0.000000,2000.000000) scale(0.100000,-0.100000)"
fill="#000000" stroke="none">
<path d="M8500 17292 c-37 -17 -61 -41 -75 -76 l-16 -38 -23 21 c-32 30 -84
43 -122 31 -40 -13 -87 -63 -82 -86 5 -29 37 -28 63 0 29 32 77 34 105 6 30
-30 27 -95 -6 -146 -58 -90 -160 -131 -478 -195 -216 -43 -339 -80 -438 -130
-159 -80 -260 -174 -316 -291 -32 -66 -40 -76 -57 -71 -48 15 -181 4 -260 -21
-180 -57 -325 -170 -545 -421 -205 -235 -292 -303 -398 -312 -48 -4 -62 -1
-92 19 -70 48 -60 116 21 138 33 9 40 15 37 33 -4 30 -37 33 -91 9 -54 -24
-82 -75 -73 -132 l6 -38 -40 5 c-74 10 -131 -33 -145 -108 -5 -25 -2 -39 8
-47 22 -18 44 -5 51 30 19 97 126 87 154 -15 19 -67 -10 -147 -88 -245 -24
-29 -118 -119 -209 -199 -226 -197 -316 -301 -391 -451 -56 -113 -73 -188 -68
-298 l5 -91 -66 -28 c-51 -22 -84 -47 -147 -109 -133 -134 -213 -314 -274
-621 -62 -312 -89 -392 -160 -469 -65 -70 -142 -84 -190 -36 -29 29 -25 64 10
100 25 25 28 34 20 50 -15 27 -25 25 -65 -12 -56 -52 -60 -128 -11 -181 l24
-26 -28 -6 c-64 -14 -108 -91 -89 -159 23 -83 71 -68 62 19 -5 49 -4 54 21 70
56 37 141 -15 165 -102 27 -95 9 -192 -83 -465 -36 -107 -75 -241 -86 -299
-28 -134 -30 -315 -6 -409 19 -71 77 -189 106 -215 18 -16 17 -18 -17 -63 -75
-98 -106 -207 -105 -372 0 -151 24 -269 98 -490 101 -301 120 -405 94 -502
-22 -78 -91 -126 -153 -105 -31 10 -39 33 -35 97 3 42 1 45 -22 45 -20 0 -26
-7 -36 -42 -9 -29 -10 -53 -3 -77 11 -39 60 -86 90 -86 24 0 24 -8 -1 -35 -23
-25 -36 -81 -26 -119 9 -38 55 -86 81 -86 37 0 39 28 5 66 -16 19 -30 45 -30
58 0 36 40 66 89 66 51 0 90 -19 125 -61 64 -76 95 -165 147 -424 59 -295 116
-452 215 -591 58 -83 134 -149 214 -187 l67 -32 -5 -85 c-5 -101 12 -180 62
-285 72 -151 175 -272 392 -460 215 -188 285 -273 303 -369 11 -62 -2 -108
-40 -140 -51 -43 -90 -30 -113 39 -10 27 -21 41 -35 43 -32 5 -38 -38 -12 -92
27 -54 75 -81 132 -73 l39 5 -6 -38 c-9 -55 19 -107 71 -132 51 -25 95 -19 95
13 0 11 -8 22 -17 25 -54 17 -83 36 -89 58 -9 39 20 82 70 101 40 16 48 16 98
1 107 -31 182 -93 358 -297 187 -215 317 -325 475 -399 99 -47 181 -64 283
-58 l79 5 27 -63 c32 -74 116 -170 195 -223 141 -96 276 -145 571 -206 282
-59 349 -82 431 -146 70 -55 91 -148 44 -194 -32 -33 -62 -31 -100 5 -35 34
-65 32 -65 -4 0 -23 29 -55 67 -75 36 -18 87 -13 127 14 l37 25 10 -28 c26
-68 90 -99 162 -78 35 10 42 16 42 36 0 23 -3 25 -45 22 -64 -4 -86 4 -99 37
-25 58 27 126 114 150 95 26 192 8 478 -88 265 -90 453 -121 608 -101 119 15
255 72 300 126 8 10 22 4 68 -30 35 -26 92 -54 142 -71 75 -25 98 -28 209 -28
165 1 293 27 535 109 270 91 373 110 468 83 90 -25 145 -121 97 -169 -19 -19
-29 -21 -70 -16 -36 5 -50 3 -60 -9 -18 -22 4 -44 56 -55 32 -8 47 -5 84 13
37 18 48 30 61 66 15 42 17 43 27 24 13 -24 61 -43 110 -43 27 0 43 9 73 39
25 24 37 45 33 54 -10 28 -33 27 -66 -3 -38 -35 -70 -38 -98 -10 -76 76 4 205
168 269 42 16 169 48 282 71 113 22 229 48 259 57 95 27 224 83 296 128 111
69 230 205 250 286 6 25 7 25 93 21 109 -5 195 14 299 67 152 76 272 181 473
411 161 184 246 253 348 280 81 21 162 -24 162 -90 0 -31 -23 -56 -62 -65 -40
-10 -55 -32 -36 -52 23 -22 81 -9 121 27 29 26 32 33 32 89 l0 60 36 -5 c45
-7 102 16 125 51 10 15 18 45 18 68 1 38 -1 42 -24 42 -20 0 -25 -6 -31 -35
-18 -85 -103 -89 -146 -6 -19 36 -13 118 13 167 32 65 113 156 221 250 316
276 436 426 494 618 22 74 30 191 17 241 -6 23 -1 28 70 62 114 54 213 161
290 313 44 87 92 251 132 446 60 297 91 380 174 458 29 28 45 35 88 39 44 3
57 0 76 -18 30 -28 29 -70 -3 -100 -30 -28 -30 -64 0 -68 27 -4 75 47 84 89 9
43 -3 90 -29 114 -27 24 -25 35 4 35 33 0 84 53 92 96 9 46 -15 108 -43 112
-26 4 -35 -19 -21 -58 13 -40 -2 -77 -38 -90 -20 -8 -36 -6 -70 10 -63 27 -88
85 -88 195 1 93 13 141 94 381 83 244 104 348 104 509 1 79 -4 152 -13 185
-15 61 -63 164 -90 195 -32 36 -33 44 -2 82 65 81 111 232 111 362 0 152 -31
299 -120 561 -100 296 -111 419 -45 506 34 45 94 64 129 40 31 -20 41 -52 26
-90 -8 -21 -7 -32 1 -42 20 -24 39 -15 55 23 29 69 1 142 -66 172 l-38 17 24
27 c46 53 25 159 -37 193 -49 26 -67 -16 -24 -56 35 -33 34 -81 -2 -110 -60
-47 -158 -3 -219 98 -44 72 -68 152 -113 379 -22 109 -54 241 -72 293 -59 177
-149 327 -243 404 -49 40 -150 96 -173 96 -10 0 -12 6 -7 23 13 40 7 180 -10
241 -33 113 -111 245 -219 369 -28 32 -112 111 -186 176 -283 246 -354 344
-338 462 14 105 131 136 153 41 8 -32 30 -53 50 -45 20 8 17 63 -6 100 -30 50
-62 66 -119 61 l-48 -5 4 46 c3 34 -1 54 -17 79 -32 52 -130 83 -144 46 -8
-22 11 -44 38 -44 29 0 66 -40 66 -71 0 -15 -12 -37 -31 -55 -27 -26 -37 -29
-97 -29 -56 0 -75 5 -117 29 -67 40 -154 124 -296 288 -166 191 -296 301 -445
376 -104 52 -244 80 -327 64 l-48 -10 -28 62 c-57 124 -158 219 -321 301 -116
58 -220 89 -450 135 -107 22 -224 48 -260 59 -83 26 -165 76 -203 123 -82 103
-5 234 91 153 34 -29 57 -32 66 -9 9 24 -29 70 -74 88 -47 19 -86 13 -126 -19
l-28 -23 -18 39 c-30 69 -101 95 -173 65 -62 -26 -37 -74 28 -54 33 10 41 9
65 -9 53 -40 34 -114 -42 -158 -93 -54 -196 -42 -486 55 -96 33 -211 68 -255
79 -280 70 -521 44 -669 -72 -26 -21 -42 -28 -51 -21 -82 59 -114 77 -181 101
-72 25 -92 27 -219 27 -176 -1 -282 -22 -540 -109 -184 -62 -314 -95 -373 -95
-97 0 -193 66 -195 135 -1 46 33 80 73 72 56 -12 63 -11 73 5 9 14 8 21 -3 33
-17 17 -97 28 -120 17z m1198 -122 c95 -16 161 -45 230 -100 34 -27 67 -50 73
-50 7 0 31 18 54 39 171 157 446 159 875 6 199 -71 273 -88 380 -89 79 0 104
3 148 23 29 13 64 37 77 53 21 24 25 26 25 11 0 -11 12 -43 26 -72 57 -113
173 -169 481 -231 109 -22 227 -48 263 -59 254 -74 421 -187 495 -334 19 -38
35 -78 35 -87 0 -24 26 -44 47 -35 46 18 131 24 193 14 170 -27 356 -153 549
-373 252 -288 361 -373 486 -384 35 -2 77 0 95 7 29 10 31 9 24 -7 -5 -9 -9
-51 -9 -92 1 -64 6 -84 33 -137 36 -71 144 -184 331 -349 201 -176 323 -338
372 -494 23 -73 27 -191 9 -246 -14 -42 -3 -60 43 -70 91 -19 199 -104 271
-212 86 -130 136 -276 191 -557 67 -344 139 -476 279 -517 l48 -14 -25 -17
c-34 -22 -75 -110 -83 -178 -10 -85 11 -183 91 -429 79 -241 100 -328 111
-456 14 -169 -35 -343 -120 -423 -20 -19 -36 -41 -36 -49 0 -8 15 -31 34 -52
89 -99 120 -195 120 -370 0 -157 -17 -238 -99 -485 -88 -263 -98 -306 -99
-410 -1 -109 14 -154 67 -212 37 -40 38 -43 16 -43 -37 0 -105 -38 -143 -80
-73 -81 -109 -182 -166 -462 -59 -295 -113 -440 -215 -576 -60 -80 -132 -134
-217 -163 -37 -13 -70 -29 -72 -36 -3 -6 -1 -27 5 -45 15 -52 13 -171 -6 -234
-49 -167 -166 -320 -420 -545 -259 -229 -320 -315 -320 -449 0 -41 4 -83 9
-94 8 -17 7 -17 -14 -6 -31 17 -126 15 -178 -4 -96 -35 -181 -110 -403 -357
-289 -323 -498 -426 -755 -373 -31 6 -32 5 -53 -59 -74 -221 -298 -355 -736
-442 -219 -43 -285 -60 -362 -95 -85 -38 -168 -122 -185 -184 l-12 -46 -26 24
c-74 70 -193 91 -339 62 -45 -9 -153 -41 -239 -71 -262 -90 -329 -106 -487
-112 -213 -8 -316 20 -417 115 -52 48 -59 48 -112 -8 -38 -39 -132 -86 -204
-101 -36 -7 -108 -10 -197 -6 -158 5 -247 26 -505 115 -244 85 -369 101 -477
60 -32 -11 -71 -34 -86 -50 -34 -33 -37 -34 -37 -8 0 66 -84 158 -185 205 -90
42 -141 56 -363 100 -304 59 -487 134 -608 248 -73 68 -99 106 -130 191 -25
68 -10 63 -146 50 -219 -21 -430 112 -735 464 -186 214 -300 294 -421 295 -31
0 -67 -3 -80 -7 -22 -7 -23 -6 -15 31 29 142 -47 277 -259 459 -238 205 -363
344 -433 483 -53 106 -68 172 -61 260 13 158 19 140 -50 165 -99 36 -151 74
-223 166 -99 125 -161 290 -220 585 -42 208 -75 320 -112 383 -51 85 -137 152
-196 152 l-27 0 31 29 c49 45 74 104 80 191 7 100 -11 182 -93 427 -79 235
-104 355 -104 506 0 165 37 283 112 354 53 51 53 57 2 114 -83 93 -114 193
-114 363 0 147 21 252 100 491 83 252 100 319 100 406 0 86 -22 156 -65 206
l-35 41 43 10 c84 22 159 109 207 240 15 43 47 172 70 287 62 305 119 458 223
594 52 68 141 134 210 156 75 25 82 34 68 89 -26 105 -3 240 61 356 71 129
178 250 383 430 209 185 271 262 300 377 12 47 13 71 6 104 -14 60 -14 61 10
48 13 -6 49 -9 88 -7 132 8 232 84 469 356 258 297 496 434 699 402 34 -6 68
-12 75 -15 22 -8 35 8 52 67 20 70 91 167 161 220 72 55 212 123 324 158 53
16 177 45 276 65 267 52 358 85 440 157 51 45 85 103 85 144 l0 28 33 -34 c53
-55 108 -74 212 -74 108 0 180 17 406 95 275 95 457 125 617 99z"/>
<path d="M9562 17080 c-102 -53 -126 -171 -52 -253 24 -26 32 -30 46 -21 27
16 27 29 -1 62 -34 40 -34 90 1 131 80 95 271 4 359 -171 19 -39 35 -77 35
-84 0 -11 -23 -14 -102 -14 -244 0 -655 -49 -1012 -121 -274 -55 -536 -135
-861 -264 -172 -68 -537 -240 -628 -296 -27 -16 -51 -28 -54 -25 -3 3 -8 45
-11 94 -7 133 30 240 107 305 39 33 64 40 105 33 54 -10 81 -48 81 -114 0 -54
1 -57 25 -57 20 0 27 7 34 36 19 77 -15 147 -88 180 -109 49 -212 -5 -283
-149 -35 -70 -38 -83 -41 -182 l-4 -107 -49 33 c-76 51 -153 76 -239 77 -123
1 -193 -31 -229 -106 -51 -106 5 -228 108 -231 51 -1 51 32 -1 56 -68 32 -87
92 -48 156 30 49 78 65 176 60 92 -5 179 -40 247 -100 l37 -33 -144 -89 c-306
-189 -700 -500 -956 -756 -276 -276 -599 -688 -798 -1018 l-50 -83 -36 49
c-20 28 -48 76 -64 108 -23 51 -27 72 -27 149 0 72 4 96 19 118 34 50 109 72
157 46 11 -6 29 -31 40 -56 14 -33 23 -43 35 -39 9 3 18 6 20 6 2 0 4 11 4 24
0 91 -92 157 -187 135 -99 -22 -145 -89 -151 -219 -5 -100 18 -182 73 -266
l33 -51 -91 -1 c-140 0 -256 -50 -324 -138 -32 -42 -43 -135 -23 -184 26 -64
102 -103 176 -91 33 5 39 10 42 34 3 27 3 27 -56 27 -51 0 -63 4 -86 26 -21
22 -26 36 -26 75 0 42 5 55 36 89 20 22 61 52 92 67 52 26 66 28 174 28 64 0
119 -3 123 -6 3 -4 -21 -55 -54 -115 -189 -341 -422 -941 -500 -1284 -83 -368
-150 -897 -151 -1188 0 -85 3 -84 -104 -30 -119 60 -217 199 -201 284 16 89
123 132 174 70 29 -35 78 -5 54 33 -16 25 -85 61 -118 61 -51 0 -111 -35 -142
-81 -80 -120 15 -323 194 -417 35 -18 63 -35 63 -36 0 -2 -26 -17 -57 -32
-155 -79 -257 -247 -223 -369 15 -54 74 -114 124 -125 48 -11 103 5 139 38 53
50 24 87 -36 46 -51 -34 -101 -32 -137 6 -15 16 -30 44 -34 62 -12 65 34 160
110 227 44 39 154 101 179 101 7 0 15 -68 23 -217 19 -343 63 -671 134 -998
76 -353 316 -976 510 -1328 33 -60 57 -112 53 -115 -4 -4 -57 -7 -119 -7 -106
0 -115 2 -178 33 -92 45 -128 88 -128 152 0 37 6 56 24 77 21 25 31 28 83 28
53 0 58 2 61 22 4 29 -37 47 -95 40 -82 -9 -133 -72 -133 -166 0 -72 28 -121
97 -171 76 -54 163 -80 269 -80 l84 0 -35 -54 c-48 -76 -75 -162 -75 -243 0
-89 14 -135 53 -180 78 -88 210 -84 267 9 26 42 23 93 -5 93 -13 0 -26 -13
-37 -37 -35 -74 -102 -90 -162 -38 -46 41 -60 86 -54 176 6 83 43 172 100 238
l33 38 54 -88 c232 -384 629 -875 908 -1125 309 -278 686 -562 927 -699 l59
-33 -38 -33 c-21 -17 -68 -47 -104 -65 -60 -30 -74 -33 -156 -34 -100 0 -139
15 -169 65 -34 59 -14 117 52 148 24 11 37 24 37 37 0 28 -51 31 -93 5 -93
-57 -97 -189 -9 -267 51 -45 96 -56 196 -50 96 5 164 27 234 76 l47 32 0 -84
c0 -205 110 -368 248 -370 60 -1 111 24 140 67 45 66 38 171 -11 164 -20 -3
-22 -9 -22 -60 0 -76 -22 -99 -98 -106 -51 -4 -57 -2 -94 32 -23 20 -53 63
-69 98 -27 58 -29 73 -29 175 0 61 3 114 7 118 4 4 22 -2 40 -13 59 -36 370
-188 493 -242 264 -114 634 -243 833 -289 343 -80 722 -134 1071 -151 118 -6
217 -12 219 -15 8 -8 -20 -76 -57 -132 -47 -73 -107 -125 -177 -153 -67 -28
-111 -21 -154 21 -38 38 -40 85 -6 136 41 60 4 89 -46 35 -34 -36 -49 -92 -37
-137 22 -80 117 -143 197 -133 107 15 242 121 297 235 l29 61 34 -61 c64 -116
183 -213 286 -232 120 -23 240 95 208 204 -17 54 -49 93 -76 89 -30 -4 -31
-30 -1 -74 33 -48 28 -87 -15 -126 -42 -39 -84 -44 -153 -18 -72 27 -150 102
-194 185 -57 110 -65 101 104 109 403 18 903 90 1228 176 316 83 853 299 1160
465 88 48 121 61 127 52 5 -6 8 -61 6 -122 -3 -97 -6 -117 -31 -167 -38 -78
-95 -128 -147 -128 -79 0 -108 29 -112 115 -3 43 -6 50 -25 53 -18 3 -24 -4
-33 -38 -26 -96 51 -191 154 -192 66 -1 112 19 156 69 76 87 119 226 103 340
l-6 47 29 -19 c107 -70 181 -95 290 -95 136 0 226 76 226 190 0 73 -35 120
-109 147 -27 10 -35 9 -47 -3 -20 -20 -11 -40 24 -53 69 -24 93 -101 50 -161
-67 -95 -292 -69 -427 48 l-33 28 68 39 c303 177 756 528 1018 790 245 245
510 572 719 890 51 77 103 159 116 182 13 24 27 43 30 43 9 0 65 -81 94 -140
23 -44 29 -72 33 -141 5 -100 -12 -149 -62 -180 -62 -38 -119 -19 -154 51 -11
23 -24 35 -37 35 -17 0 -20 -6 -19 -36 2 -79 72 -134 160 -127 114 10 174 87
176 225 1 94 -18 167 -67 247 -19 32 -35 60 -35 61 0 1 47 4 103 7 89 4 113 9
169 35 148 69 209 179 159 289 -33 73 -103 107 -180 88 -29 -7 -36 -14 -36
-34 0 -24 3 -25 57 -25 45 0 61 -5 82 -24 52 -49 42 -125 -25 -186 -76 -68
-191 -97 -322 -81 l-56 7 89 172 c203 393 387 870 466 1212 85 367 154 891
154 1176 0 77 3 99 14 99 31 0 155 -72 199 -116 80 -81 115 -181 83 -242 -34
-65 -97 -80 -155 -37 -26 19 -38 22 -52 14 -27 -14 -23 -33 11 -63 84 -70 201
-43 249 57 31 65 27 121 -14 203 -41 84 -109 152 -194 197 l-63 34 74 41 c161
88 251 253 204 377 -31 81 -119 129 -193 107 -43 -13 -93 -55 -93 -78 0 -20
29 -30 49 -16 53 39 76 44 114 29 42 -18 77 -68 77 -112 0 -87 -104 -217 -215
-269 -100 -47 -91 -60 -98 136 -12 313 -54 645 -128 1005 -78 380 -284 926
-507 1348 -82 154 -84 149 73 143 81 -3 110 -9 156 -30 109 -50 157 -127 125
-202 -18 -44 -42 -56 -106 -56 -36 0 -52 -4 -56 -15 -9 -22 12 -42 49 -48 114
-16 209 96 178 211 -14 55 -39 87 -98 129 -78 55 -145 75 -254 75 l-97 0 29
43 c88 130 110 296 54 404 -20 40 -75 81 -122 92 -78 17 -163 -30 -185 -102
-10 -34 -9 -42 5 -56 13 -13 19 -14 31 -3 9 7 16 18 16 25 0 8 12 27 26 44 47
57 140 36 179 -39 24 -47 19 -173 -9 -242 -23 -57 -91 -158 -105 -158 -5 0
-35 44 -67 97 -179 296 -525 741 -760 977 -241 243 -678 589 -975 772 -77 48
-138 92 -136 98 7 20 131 96 181 111 65 19 178 19 216 0 45 -23 70 -62 70
-110 0 -46 -23 -75 -73 -94 -21 -8 -28 -17 -25 -34 2 -18 9 -22 36 -21 113 6
164 159 86 261 -80 106 -298 102 -459 -6 l-43 -29 0 89 c-1 131 -40 238 -113
309 -117 112 -303 49 -303 -103 0 -52 21 -84 48 -74 12 5 16 20 16 59 0 61 16
90 59 108 71 29 150 -22 199 -129 21 -46 27 -75 30 -156 2 -55 0 -110 -5 -121
-8 -21 -11 -20 -103 30 -271 147 -626 298 -980 415 -168 55 -269 82 -465 121
-363 72 -764 120 -1007 120 -71 0 -108 4 -108 11 0 25 68 146 108 190 49 55
148 109 200 109 45 0 88 -27 107 -66 20 -43 19 -55 -10 -98 -29 -43 -32 -64
-8 -73 23 -9 80 56 88 101 13 69 -24 138 -95 174 -121 63 -308 -34 -399 -207
l-34 -64 -31 59 c-95 176 -282 276 -404 214z m905 -430 c534 -50 900 -128
1321 -281 733 -268 1322 -623 1904 -1149 471 -426 966 -1119 1237 -1732 141
-319 289 -738 335 -948 109 -497 153 -927 143 -1400 -8 -380 -42 -671 -129
-1090 -110 -536 -405 -1227 -746 -1750 -144 -221 -364 -508 -540 -705 -251
-280 -631 -601 -1007 -852 -511 -340 -1195 -639 -1732 -757 -830 -183 -1583
-190 -2418 -20 -212 43 -312 70 -517 140 -726 249 -1310 582 -1894 1081 -514
438 -988 1062 -1299 1708 -142 294 -330 793 -380 1010 -204 877 -216 1637 -40
2510 140 694 497 1472 961 2090 261 350 511 618 797 858 542 455 1088 769
1752 1010 331 120 566 178 963 237 413 62 895 77 1289 40z"/>
<path d="M8473 15199 c-170 -84 -412 -547 -545 -1042 l-13 -47 -60 41 c-128
86 -295 156 -429 180 -119 20 -169 -10 -228 -139 -124 -273 -165 -859 -92
-1321 8 -52 13 -95 11 -97 -2 -2 -36 7 -75 20 -195 67 -429 82 -529 34 -71
-33 -112 -210 -98 -428 35 -588 284 -1237 645 -1686 91 -114 262 -279 379
-368 56 -42 96 -78 89 -80 -7 -2 -49 -9 -93 -16 -379 -55 -817 -206 -1095
-379 -178 -111 -366 -283 -458 -419 -54 -79 -109 -192 -117 -242 -14 -81 63
-167 233 -261 418 -232 1074 -356 1605 -305 202 20 324 42 489 91 328 97 547
223 832 477 39 35 57 46 53 33 -4 -11 -16 -74 -27 -140 -119 -698 48 -1258
474 -1587 119 -92 267 -179 317 -185 115 -16 356 123 578 332 430 406 690 950
703 1472 2 62 5 113 7 113 2 0 36 -30 75 -67 570 -541 1528 -698 2476 -406
299 92 566 236 625 337 33 57 31 96 -8 186 -156 357 -598 677 -1169 844 -144
43 -357 90 -503 111 -60 9 -111 18 -113 20 -10 10 24 48 90 100 481 385 828
1017 954 1735 34 192 43 452 20 559 -29 136 -62 168 -191 183 -98 12 -258 -6
-374 -42 -36 -11 -66 -18 -68 -17 -1 2 4 41 11 87 41 254 46 680 11 910 -50
328 -136 526 -237 545 -65 12 -185 -18 -364 -91 -6 -3 -18 21 -29 58 -57 206
-202 526 -311 691 -102 153 -187 227 -261 227 -72 0 -227 -102 -350 -230 -143
-148 -275 -363 -363 -590 -19 -47 -35 -87 -36 -89 -2 -2 -22 12 -46 32 -78 63
-137 83 -196 68 -48 -14 -103 -60 -143 -121 l-31 -49 -45 132 c-56 166 -140
340 -195 402 -70 79 -151 103 -226 68 -95 -44 -275 -270 -398 -501 -26 -48
-58 -107 -72 -131 l-24 -44 -33 62 c-69 128 -130 182 -211 185 -46 2 -46 3
-69 57 -80 195 -237 433 -366 555 -112 104 -257 194 -316 194 -15 0 -47 -9
-70 -21z m85 -275 c12 -8 22 -25 22 -37 0 -12 -29 -79 -64 -149 -70 -141 -146
-356 -172 -491 -14 -70 -22 -92 -40 -104 -28 -18 -59 -10 -79 21 -14 20 -14
31 0 97 60 291 230 679 297 679 8 0 24 -7 36 -16z m3121 -1 c26 -23 129 -230
175 -356 45 -121 96 -316 96 -367 0 -29 -6 -43 -22 -54 -54 -38 -82 -7 -109
118 -30 144 -91 312 -170 473 -38 77 -69 146 -69 152 0 18 38 51 59 51 10 0
28 -8 40 -17z m-1529 -343 c31 -31 24 -56 -38 -139 -69 -92 -142 -217 -213
-365 -56 -118 -84 -146 -124 -128 -41 19 -42 54 -1 145 107 238 287 507 339
507 9 0 26 -9 37 -20z m-2664 -548 c9 -18 6 -41 -13 -115 -79 -304 -66 -768
28 -975 27 -61 28 -67 14 -89 -75 -114 -176 85 -206 404 -26 283 23 712 89
786 22 25 73 19 88 -11z m5103 -3 c24 -40 46 -126 65 -259 46 -330 19 -684
-68 -867 -37 -77 -63 -96 -104 -74 -34 18 -36 48 -8 111 100 223 112 701 25
997 -20 68 -21 74 -5 98 25 37 71 35 95 -6z m-4074 -874 c14 -13 25 -30 25
-38 0 -7 -19 -40 -43 -72 -140 -194 -268 -480 -361 -805 -42 -147 -82 -336
-92 -434 -10 -99 -55 -135 -105 -85 -19 19 -21 29 -15 88 26 260 152 686 293
991 69 148 204 357 241 372 27 11 32 9 57 -17z m2916 15 c13 0 105 -135 159
-235 138 -256 291 -735 364 -1135 35 -191 37 -257 12 -276 -27 -19 -60 -18
-79 4 -10 10 -20 52 -27 107 -23 190 -100 516 -182 775 -72 228 -178 461 -274
607 -30 44 -54 93 -54 106 0 28 36 61 58 52 8 -3 18 -5 23 -5z m-2461 -330
c11 -11 20 -26 20 -32 0 -7 -42 -98 -94 -203 -134 -269 -197 -450 -250 -715
-28 -139 -56 -366 -56 -450 0 -63 -14 -120 -32 -132 -21 -13 -55 -9 -72 8 -44
44 14 533 99 829 45 159 106 312 192 487 46 94 93 183 104 199 24 34 60 38 89
9z m1919 -57 c42 -29 186 -347 267 -590 102 -304 194 -803 194 -1052 0 -54 -3
-62 -25 -77 -21 -14 -31 -15 -51 -6 -33 16 -40 39 -48 165 -30 477 -172 999
-388 1431 -43 86 -44 120 -5 136 30 12 30 12 56 -7z m-997 -25 c27 -22 229
-484 343 -788 203 -537 315 -990 341 -1368 6 -90 5 -105 -11 -122 -24 -27 -70
-26 -89 2 -9 13 -16 44 -16 73 0 68 -16 206 -41 350 -72 424 -253 968 -529
1588 -50 111 -90 210 -90 220 0 50 52 76 92 45z m-3160 -175 c11 -13 17 -52
22 -128 16 -256 81 -544 172 -756 39 -93 42 -119 14 -144 -53 -48 -105 25
-181 254 -67 206 -109 421 -124 644 -6 81 -4 102 9 122 20 30 65 34 88 8z
m6500 0 c23 -20 24 -89 3 -263 -27 -231 -85 -464 -162 -650 -50 -123 -89 -155
-135 -113 -26 23 -23 47 22 150 84 195 154 506 167 738 3 68 11 119 19 133 17
26 59 29 86 5z m-4979 -1485 c410 -265 989 -659 1202 -818 225 -169 249 -197
208 -242 -29 -32 -63 -22 -153 48 -265 207 -816 588 -1234 854 -172 110 -216
145 -216 171 0 25 35 59 60 59 12 0 71 -33 133 -72z m4022 56 c10 -10 15 -29
13 -48 -2 -26 -13 -38 -65 -71 -574 -371 -1192 -797 -1390 -957 -82 -66 -125
-77 -144 -34 -25 53 -9 70 241 257 359 267 1263 869 1307 869 12 0 29 -7 38
-16z m-4559 -1129 c25 -25 26 -55 3 -79 -4 -5 -102 -33 -216 -62 -424 -107
-801 -259 -1032 -415 -158 -108 -154 -106 -185 -85 -22 14 -27 24 -24 49 8 81
350 278 718 415 212 78 624 197 698 201 7 1 24 -10 38 -24z m4874 -21 c361
-88 823 -271 1045 -415 171 -111 202 -152 154 -200 -26 -26 -58 -20 -113 25
-204 166 -645 353 -1110 471 -207 52 -236 65 -236 102 0 8 11 25 25 39 29 29
15 31 235 -22z m-1959 -1115 c18 -18 20 -28 14 -82 -27 -236 -160 -493 -389
-750 -61 -69 -292 -281 -340 -312 -47 -31 -106 6 -92 58 3 12 40 51 82 86 370
312 582 629 620 927 10 87 58 120 105 73z"/>
<path d="M9065 16810 c-191 -52 -353 -59 -480 -19 -33 10 -65 19 -70 19 -6 0
-44 -33 -86 -74 -88 -86 -161 -125 -361 -190 -120 -40 -133 -47 -133 -68 0
-20 4 -23 36 -21 54 3 243 70 343 121 55 28 114 69 153 105 l63 60 58 -17
c130 -36 256 -30 472 22 108 26 115 29 115 52 0 32 -20 34 -110 10z"/>
<path d="M10815 16810 c-5 -15 -2 -25 6 -31 26 -16 225 -59 328 -70 109 -13
216 -3 285 25 29 12 32 10 87 -45 88 -88 236 -162 437 -219 77 -21 84 -22 100
-7 25 26 5 38 -143 86 -200 66 -300 121 -377 211 -24 28 -49 50 -56 50 -7 0
-41 -10 -75 -21 -93 -32 -254 -30 -412 5 -66 15 -132 29 -146 32 -22 5 -28 2
-34 -16z"/>
<path d="M6407 15594 c-172 -160 -267 -218 -410 -253 l-71 -17 -13 -63 c-26
-129 -91 -237 -243 -402 -81 -89 -95 -120 -56 -127 12 -3 41 21 89 74 173 187
238 293 271 444 5 22 14 28 66 38 111 23 224 94 393 245 62 56 87 85 87 102 0
46 -28 36 -113 -41z"/>
<path d="M13482 15658 c-7 -7 -12 -17 -12 -24 0 -20 190 -192 275 -249 87 -58
137 -81 217 -99 l52 -11 16 -65 c21 -80 63 -165 125 -248 59 -81 203 -232 221
-232 7 0 18 8 23 18 7 14 -5 32 -61 92 -82 89 -182 218 -209 273 -11 21 -30
77 -42 125 -22 84 -23 87 -57 95 -170 40 -254 88 -419 238 -56 52 -106 95
-110 97 -4 1 -12 -3 -19 -10z"/>
<path d="M4754 13318 c-5 -7 -24 -62 -42 -123 -54 -178 -111 -287 -200 -375
l-74 -74 23 -71 c36 -105 32 -273 -9 -450 -31 -130 -30 -155 4 -155 20 0 29
24 59 160 37 171 43 320 17 420 l-20 75 47 50 c62 66 105 130 141 209 42 95
102 285 98 315 -3 28 -31 40 -44 19z"/>
<path d="M15202 13318 c-18 -18 -16 -25 33 -174 57 -174 113 -280 190 -358
l60 -61 -16 -50 c-25 -75 -32 -180 -20 -280 13 -106 57 -305 70 -318 5 -5 19
-6 31 -2 25 8 26 -2 -13 175 -46 206 -45 284 4 455 l12 40 -74 75 c-88 89
-137 181 -194 365 -46 145 -55 161 -83 133z"/>
<path d="M4427 10427 c-3 -7 6 -58 19 -113 51 -213 55 -350 13 -477 l-22 -68
60 -57 c102 -97 152 -193 222 -420 29 -93 34 -103 54 -100 12 2 23 11 25 21 6
29 -66 244 -114 345 -32 66 -63 112 -109 161 l-65 68 21 84 c26 101 23 227
-10 386 -30 146 -42 177 -67 181 -12 2 -24 -3 -27 -11z"/>
<path d="M15510 10415 c-6 -15 -22 -84 -37 -154 -33 -160 -37 -316 -9 -408
l18 -62 -60 -66 c-36 -39 -79 -102 -105 -153 -50 -96 -117 -288 -120 -342 -2
-31 1 -35 21 -35 21 0 28 14 72 147 63 191 98 256 187 348 40 41 73 80 73 88
0 7 -10 41 -22 75 -32 91 -29 241 7 407 36 159 36 174 8 178 -17 3 -26 -4 -33
-23z"/>
<path d="M5597 7773 c-16 -16 -2 -39 74 -120 134 -142 215 -268 234 -363 21
-109 19 -107 87 -119 70 -12 180 -62 252 -114 26 -19 91 -74 142 -122 95 -87
126 -101 132 -59 2 15 -16 39 -62 82 -162 151 -258 216 -371 253 -118 37 -112
33 -119 82 -9 58 -71 186 -128 262 -24 33 -80 97 -122 143 -71 75 -101 94
-119 75z"/>
<path d="M14278 7698 c-155 -171 -226 -284 -250 -400 l-12 -57 -49 -11 c-121
-26 -264 -115 -421 -263 -54 -51 -77 -80 -74 -93 7 -39 38 -25 127 56 166 153
270 215 399 240 34 7 64 16 67 20 2 3 11 38 19 77 26 124 91 230 245 395 82
89 93 118 46 118 -16 0 -46 -25 -97 -82z"/>
<path d="M7937 6053 c-4 -3 -7 -14 -7 -24 0 -13 30 -26 133 -59 209 -67 296
-115 393 -219 l51 -55 69 23 c129 43 288 37 508 -19 79 -20 98 -17 94 14 -4
25 -34 36 -181 68 -137 29 -338 31 -415 5 l-53 -19 -69 66 c-85 79 -184 132
-354 187 -119 38 -156 46 -169 32z"/>
<path d="M11872 6015 c-173 -58 -261 -105 -344 -183 l-66 -63 -54 18 c-106 36
-349 19 -551 -38 -42 -11 -57 -33 -36 -54 12 -12 25 -11 89 5 213 55 378 62
505 20 l70 -22 77 76 c63 64 92 84 172 121 52 25 145 60 206 78 118 36 136 46
127 71 -10 25 -52 19 -195 -29z"/>
<path d="M11020 3525 l0 -925 185 0 185 0 0 925 0 925 -185 0 -185 0 0 -925z"/>
<path d="M11550 4295 l0 -155 185 0 185 0 0 155 0 155 -185 0 -185 0 0 -155z"/>
<path d="M6560 3465 l0 -865 205 0 205 0 0 340 0 340 265 0 265 0 0 -340 0
-340 205 0 205 0 0 865 0 865 -205 0 -205 0 0 -340 0 -340 -265 0 -265 0 0
340 0 340 -205 0 -205 0 0 -865z"/>
<path d="M8605 3961 c-193 -32 -363 -141 -470 -300 -154 -233 -150 -540 11
-767 140 -198 360 -305 598 -291 219 13 356 83 486 245 83 104 87 93 -58 140
-228 73 -206 70 -252 33 -102 -82 -249 -98 -365 -40 -54 27 -121 91 -146 142
l-19 37 501 0 502 0 -6 128 c-8 212 -61 338 -201 478 -90 89 -171 140 -281
174 -78 24 -220 34 -300 21z m246 -373 c63 -32 115 -79 148 -138 l22 -40 -316
0 -316 0 18 32 c33 59 116 134 173 156 80 32 194 27 271 -10z"/>
<path d="M9985 3955 c-131 -29 -230 -83 -329 -180 -138 -136 -201 -288 -201
-485 0 -117 14 -184 56 -278 100 -222 302 -372 542 -402 155 -19 293 15 385
96 l52 46 0 -76 0 -76 185 0 185 0 0 685 0 685 -185 0 -185 0 0 -70 c0 -38 -3
-70 -6 -70 -3 0 -19 14 -36 30 -43 43 -104 77 -173 94 -71 19 -207 19 -290 1z
m290 -359 c62 -28 135 -100 166 -163 34 -69 38 -188 9 -265 -62 -167 -267
-260 -433 -198 -82 31 -166 114 -196 195 -30 80 -27 197 7 268 81 164 280 237
447 163z"/>
<path d="M11550 3285 l0 -685 185 0 185 0 0 685 0 685 -185 0 -185 0 0 -685z"/>
<path d="M12560 3954 c-115 -24 -223 -86 -321 -183 -144 -144 -202 -281 -202
-481 0 -209 79 -383 235 -520 220 -192 571 -222 748 -64 l50 46 0 -76 0 -76
185 0 185 0 0 685 0 685 -185 0 -185 0 0 -71 0 -71 -35 30 c-52 46 -114 79
-180 96 -72 19 -207 19 -295 0z m297 -359 c60 -27 133 -96 162 -153 43 -85 43
-219 1 -303 -63 -123 -192 -197 -329 -187 -86 6 -146 34 -207 95 -77 78 -99
130 -99 238 0 76 4 99 26 145 79 168 277 241 446 165z"/>
</g>
</svg>
